<svg xmlns="http://www.w3.org/2000/svg" xmlns:xlink="http://www.w3.org/1999/xlink" width="500" zoomAndPan="magnify" viewBox="0 0 375 374.999991" height="500" preserveAspectRatio="xMidYMid meet" version="1.0"><defs><g/><clipPath id="32eafaf5d0"><path d="M 47.355469 144.65625 L 306.085938 144.65625 L 306.085938 215.90625 L 47.355469 215.90625 Z M 47.355469 144.65625 " clip-rule="nonzero"/></clipPath></defs><g clip-path="url(#32eafaf5d0)"><path stroke-linecap="butt" transform="matrix(0.749694, 0, 0, 0.74963, 47.354869, 144.656518)" fill="none" stroke-linejoin="miter" d="M 0.000799472 -0.000357111 L 345.115411 -0.000357111 L 345.115411 95.046531 L 0.000799472 95.046531 L 0.000799472 -0.000357111 " stroke="#000000" stroke-width="6" stroke-opacity="1" stroke-miterlimit="4"/></g><g fill="#ffffff" fill-opacity="1"><g transform="translate(174.117986, 183.656515)"><g><path d="M 4.125 0 L 4.125 -3.09375 C 4.125 -3.570312 4.023438 -3.921875 3.828125 -4.140625 C 3.628906 -4.359375 3.316406 -4.46875 2.890625 -4.46875 C 2.316406 -4.46875 1.894531 -4.320312 1.625 -4.03125 C 1.363281 -3.75 1.234375 -3.285156 1.234375 -2.640625 L 1.234375 0 L 0.796875 0 L 0.796875 -4.78125 L 1.171875 -4.78125 L 1.25 -4.125 L 1.28125 -4.125 C 1.59375 -4.625 2.144531 -4.875 2.9375 -4.875 C 4.019531 -4.875 4.5625 -4.289062 4.5625 -3.125 L 4.5625 0 Z M 4.125 0 "/></g></g></g><g fill="#ffffff" fill-opacity="1"><g transform="translate(54.406741, 188.556477)"><g><path d="M 14.660156 0 L 14.660156 -16.785156 L 10.960938 -16.785156 L 10.960938 -6.320312 L 5.183594 -16.785156 L 1.480469 -16.785156 L 1.480469 0 L 5.183594 0 L 5.183594 -10.464844 L 10.960938 0 Z M 14.660156 0 "/></g></g></g><g fill="#ffffff" fill-opacity="1"><g transform="translate(70.547281, 188.556477)"><g><path d="M 14.4375 -8.417969 C 14.4375 -5.824219 12.09375 -3.457031 9.503906 -3.457031 C 6.910156 -3.457031 4.566406 -5.824219 4.566406 -8.417969 C 4.566406 -11.007812 6.910156 -13.351562 9.503906 -13.351562 C 12.09375 -13.351562 14.4375 -11.007812 14.4375 -8.417969 Z M 18.140625 -8.390625 C 18.140625 -13.03125 14.144531 -17.03125 9.503906 -17.03125 C 4.863281 -17.03125 0.863281 -13.03125 0.863281 -8.390625 C 0.863281 -3.75 4.863281 0.246094 9.503906 0.246094 C 14.144531 0.246094 18.140625 -3.75 18.140625 -8.390625 Z M 18.140625 -8.390625 "/></g></g></g><g fill="#ffffff" fill-opacity="1"><g transform="translate(89.550663, 188.556477)"><g><path d="M 5.183594 -5.996094 L 5.207031 -5.996094 L 9.207031 0 L 13.894531 0 L 9.082031 -6.171875 C 11.207031 -6.6875 12.910156 -8.566406 12.910156 -11.402344 C 12.910156 -14.585938 10.488281 -16.785156 7.773438 -16.785156 L 1.480469 -16.785156 L 1.480469 0 L 5.183594 0 Z M 7.15625 -13.871094 C 8.242188 -13.871094 9.378906 -12.933594 9.378906 -11.402344 C 9.378906 -9.800781 8.242188 -8.910156 7.15625 -8.910156 L 5.183594 -8.910156 L 5.183594 -13.871094 Z M 7.15625 -13.871094 "/></g></g></g><g fill="#ffffff" fill-opacity="1"><g transform="translate(103.149184, 188.556477)"><g><path d="M 8.613281 -13.425781 L 13.402344 -13.425781 L 13.402344 -16.785156 L 0.125 -16.785156 L 0.125 -13.425781 L 4.910156 -13.425781 L 4.910156 0 L 8.613281 0 Z M 8.613281 -13.425781 "/></g></g></g><g fill="#ffffff" fill-opacity="1"><g transform="translate(116.673674, 188.556477)"><g><path d="M 10.710938 -16.785156 L 10.710938 -10.09375 L 5.183594 -10.09375 L 5.183594 -16.785156 L 1.480469 -16.785156 L 1.480469 0 L 5.183594 0 L 5.183594 -6.738281 L 10.710938 -6.738281 L 10.710938 0 L 14.660156 0 L 14.660156 -16.785156 Z M 10.710938 -16.785156 "/></g></g></g><g fill="#ffffff" fill-opacity="1"><g transform="translate(132.814214, 188.556477)"><g/></g></g><g fill="#ffffff" fill-opacity="1"><g transform="translate(138.984147, 188.556477)"><g><path d="M 5.183594 -5.996094 L 5.207031 -5.996094 L 9.207031 0 L 13.894531 0 L 9.082031 -6.171875 C 11.207031 -6.6875 12.910156 -8.566406 12.910156 -11.402344 C 12.910156 -14.585938 10.488281 -16.785156 7.773438 -16.785156 L 1.480469 -16.785156 L 1.480469 0 L 5.183594 0 Z M 7.15625 -13.871094 C 8.242188 -13.871094 9.378906 -12.933594 9.378906 -11.402344 C 9.378906 -9.800781 8.242188 -8.910156 7.15625 -8.910156 L 5.183594 -8.910156 L 5.183594 -13.871094 Z M 7.15625 -13.871094 "/></g></g></g><g fill="#ffffff" fill-opacity="1"><g transform="translate(152.582668, 188.556477)"><g><path d="M 10.613281 -6.417969 L 6.367188 -6.417969 L 8.492188 -12.390625 Z M 16.882812 0 L 10.070312 -16.785156 L 6.9375 -16.785156 L 0.125 0 L 4.097656 0 L 5.308594 -3.382812 L 11.699219 -3.382812 L 12.910156 0 Z M 16.882812 0 "/></g></g></g><g fill="#ffffff" fill-opacity="1"><g transform="translate(169.586997, 188.556477)"><g><path d="M 14.660156 0 L 14.660156 -16.785156 L 10.960938 -16.785156 L 10.960938 -6.320312 L 5.183594 -16.785156 L 1.480469 -16.785156 L 1.480469 0 L 5.183594 0 L 5.183594 -10.464844 L 10.960938 0 Z M 14.660156 0 "/></g></g></g><g fill="#ffffff" fill-opacity="1"><g transform="translate(185.727537, 188.556477)"><g><path d="M 9.871094 -13.574219 C 11.503906 -13.574219 13.179688 -12.910156 13.996094 -11.132812 L 18.066406 -11.132812 C 16.90625 -14.613281 13.574219 -17.03125 9.871094 -17.03125 C 5.132812 -17.03125 1.234375 -13.132812 1.234375 -8.390625 C 1.234375 -3.652344 5.132812 0.246094 9.871094 0.246094 C 14.660156 0.246094 18.488281 -3.628906 18.488281 -8.390625 L 18.488281 -8.960938 L 10.21875 -8.960938 L 10.21875 -6.171875 L 14.488281 -6.171875 C 13.574219 -3.628906 11.503906 -3.109375 9.871094 -3.109375 C 7.207031 -3.109375 4.984375 -5.503906 4.984375 -8.34375 C 4.984375 -11.179688 7.207031 -13.574219 9.871094 -13.574219 Z M 9.871094 -13.574219 "/></g></g></g><g fill="#ffffff" fill-opacity="1"><g transform="translate(205.076439, 188.556477)"><g><path d="M 11.207031 -3.355469 L 5.183594 -3.355469 L 5.183594 -6.738281 L 10.960938 -6.738281 L 10.960938 -10.09375 L 5.183594 -10.09375 L 5.183594 -13.425781 L 11.207031 -13.425781 L 11.207031 -16.785156 L 1.480469 -16.785156 L 1.480469 0 L 11.207031 0 Z M 11.207031 -3.355469 "/></g></g></g><g fill="#ffffff" fill-opacity="1"><g transform="translate(217.761814, 188.556477)"><g/></g></g><g fill="#ffffff" fill-opacity="1"><g transform="translate(223.931746, 188.556477)"><g><path d="M 22.410156 0 L 19.152344 -16.785156 L 14.761719 -16.785156 L 11.28125 -5.011719 L 7.773438 -16.785156 L 3.382812 -16.785156 L 0.125 0 L 4.195312 0 L 6.171875 -11.574219 L 9.453125 0 L 13.082031 0 L 16.363281 -11.574219 L 18.339844 0 Z M 22.410156 0 "/></g></g></g><g fill="#ffffff" fill-opacity="1"><g transform="translate(246.464315, 188.556477)"><g><path d="M 5.183594 0 L 5.183594 -16.785156 L 1.480469 -16.785156 L 1.480469 0 Z M 5.183594 0 "/></g></g></g><g fill="#ffffff" fill-opacity="1"><g transform="translate(253.127843, 188.556477)"><g><path d="M 14.660156 0 L 14.660156 -16.785156 L 10.960938 -16.785156 L 10.960938 -6.320312 L 5.183594 -16.785156 L 1.480469 -16.785156 L 1.480469 0 L 5.183594 0 L 5.183594 -10.464844 L 10.960938 0 Z M 14.660156 0 "/></g></g></g><g fill="#ffffff" fill-opacity="1"><g transform="translate(269.268383, 188.556477)"><g><path d="M 11.207031 -3.355469 L 5.183594 -3.355469 L 5.183594 -6.738281 L 10.960938 -6.738281 L 10.960938 -10.09375 L 5.183594 -10.09375 L 5.183594 -13.425781 L 11.207031 -13.425781 L 11.207031 -16.785156 L 1.480469 -16.785156 L 1.480469 0 L 11.207031 0 Z M 11.207031 -3.355469 "/></g></g></g><g fill="#ffffff" fill-opacity="1"><g transform="translate(281.953769, 188.556477)"><g><path d="M 7.996094 -2.617188 C 6.171875 -2.617188 4.589844 -3.53125 4.492188 -5.527344 L 0.742188 -5.527344 C 0.765625 -1.429688 4.148438 0.394531 7.847656 0.394531 C 11.28125 0.394531 14.808594 -1.0625 14.808594 -5.011719 C 14.808594 -11.402344 5.109375 -9.257812 5.109375 -12.242188 C 5.109375 -13.5 6.566406 -13.996094 7.601562 -13.996094 C 9.453125 -13.996094 10.464844 -13.425781 10.664062 -11.675781 L 14.242188 -11.675781 C 14.117188 -15.5 11.007812 -17.03125 7.554688 -17.03125 C 4.492188 -17.03125 1.285156 -15.402344 1.285156 -11.945312 C 1.285156 -5.75 10.984375 -7.847656 10.984375 -4.589844 C 10.984375 -3.085938 9.15625 -2.617188 7.996094 -2.617188 Z M 7.996094 -2.617188 "/></g></g></g></svg>